<svg width="1920" height="100" viewBox="0 0 1920 100" fill="none" xmlns="http://www.w3.org/2000/svg">
<rect width="1920" height="100" fill="#F7F7F7"/>
<path d="M1341.16 56.6094C1341.16 56.7344 1341.08 56.7969 1340.92 56.7969C1340.73 56.8281 1340.64 56.7656 1340.64 56.6094C1340.64 56.5156 1340.72 56.4688 1340.88 56.4688C1341.06 56.4375 1341.16 56.4844 1341.16 56.6094ZM1339.89 56.6562C1339.7 56.625 1339.62 56.5469 1339.66 56.4219C1339.72 56.2969 1339.83 56.2656 1339.98 56.3281C1340.14 56.3594 1340.2 56.4375 1340.17 56.5625C1340.14 56.6875 1340.05 56.7188 1339.89 56.6562ZM1341.77 56.3281C1341.92 56.3281 1342 56.375 1342 56.4688C1342.03 56.5625 1341.97 56.6406 1341.81 56.7031C1341.66 56.7344 1341.56 56.6875 1341.53 56.5625C1341.53 56.4375 1341.61 56.3594 1341.77 56.3281ZM1344.86 38.375C1346.98 38.375 1348.95 38.875 1350.77 39.875C1352.58 40.875 1354 42.25 1355.03 44C1356.09 45.75 1356.62 47.6875 1356.62 49.8125C1356.62 52.4062 1355.89 54.7344 1354.42 56.7969C1352.98 58.8281 1351.09 60.2344 1348.75 61.0156C1348.5 61.0781 1348.3 61.0469 1348.14 60.9219C1348.02 60.7969 1347.95 60.6406 1347.95 60.4531C1347.95 60.4219 1347.95 59.9219 1347.95 58.9531C1347.95 57.9531 1347.95 57.1406 1347.95 56.5156C1347.95 55.5156 1347.69 54.7969 1347.16 54.3594C1347.84 54.2656 1348.38 54.1875 1348.75 54.125C1349.12 54.0625 1349.59 53.9219 1350.16 53.7031C1350.72 53.4844 1351.14 53.2031 1351.42 52.8594C1351.73 52.5156 1352 52.0312 1352.22 51.4062C1352.44 50.7812 1352.55 50.0312 1352.55 49.1562C1352.55 48.5625 1352.45 48.0781 1352.27 47.7031C1352.08 47.3281 1351.77 46.9062 1351.33 46.4375C1351.7 45.4688 1351.67 44.4062 1351.23 43.25C1350.92 43.1562 1350.5 43.2188 1349.97 43.4375C1349.44 43.625 1348.97 43.8438 1348.56 44.0938L1348 44.5156C1347.03 44.2344 1346.03 44.0938 1345 44.0938C1344 44.0938 1343.03 44.2344 1342.09 44.5156C1341.94 44.3906 1341.72 44.25 1341.44 44.0938C1341.16 43.9062 1340.72 43.7031 1340.12 43.4844C1339.56 43.2344 1339.14 43.1562 1338.86 43.25C1338.39 44.4062 1338.34 45.4688 1338.72 46.4375C1338 47.2188 1337.64 48.125 1337.64 49.1562C1337.64 50.0312 1337.75 50.7812 1337.97 51.4062C1338.19 52.0312 1338.44 52.5156 1338.72 52.8594C1339 53.2031 1339.41 53.4844 1339.94 53.7031C1340.47 53.9219 1340.92 54.0781 1341.3 54.1719C1341.7 54.2344 1342.23 54.2969 1342.89 54.3594C1342.48 54.7344 1342.23 55.2656 1342.14 55.9531C1341.83 56.0781 1341.5 56.1719 1341.16 56.2344C1340.84 56.2969 1340.44 56.2344 1339.94 56.0469C1339.44 55.8594 1339.03 55.5 1338.72 54.9688C1338.53 54.625 1338.28 54.3594 1337.97 54.1719C1337.69 53.9531 1337.44 53.8281 1337.22 53.7969L1336.94 53.75C1336.25 53.75 1336.22 53.9844 1336.84 54.4531C1337.06 54.5781 1337.28 54.7812 1337.5 55.0625C1337.72 55.3438 1337.88 55.5938 1337.97 55.8125L1338.16 56.1875C1338.28 56.5625 1338.5 56.875 1338.81 57.125C1339.12 57.375 1339.47 57.5312 1339.84 57.5938C1340.22 57.6562 1340.58 57.6875 1340.92 57.6875C1341.27 57.6875 1341.55 57.6719 1341.77 57.6406L1342.09 57.5938C1342.09 57.9688 1342.09 58.5312 1342.09 59.2812C1342.12 60.0312 1342.14 60.4219 1342.14 60.4531C1342.14 60.6406 1342.06 60.7969 1341.91 60.9219C1341.78 61.0469 1341.59 61.0781 1341.34 61.0156C1338.97 60.2344 1337.05 58.8281 1335.58 56.7969C1334.11 54.7344 1333.38 52.4062 1333.38 49.8125C1333.38 46.5625 1334.47 43.8438 1336.66 41.6562C1338.88 39.4688 1341.61 38.375 1344.86 38.375ZM1337.92 54.5469C1337.98 54.4844 1338.06 54.5 1338.16 54.5938C1338.25 54.6875 1338.27 54.7656 1338.2 54.8281C1338.14 54.8906 1338.06 54.875 1337.97 54.7812C1337.88 54.6875 1337.86 54.6094 1337.92 54.5469ZM1337.41 54.1719C1337.47 54.1094 1337.55 54.0938 1337.64 54.125C1337.73 54.1875 1337.77 54.25 1337.73 54.3125C1337.7 54.4062 1337.64 54.4219 1337.55 54.3594C1337.42 54.2969 1337.38 54.2344 1337.41 54.1719ZM1338.95 55.8125C1339.02 55.7188 1339.11 55.7344 1339.23 55.8594C1339.36 55.9844 1339.39 56.0938 1339.33 56.1875C1339.23 56.2812 1339.12 56.2656 1339 56.1406C1338.88 56.0156 1338.86 55.9062 1338.95 55.8125ZM1338.39 55.1562C1338.48 55.0625 1338.58 55.0938 1338.67 55.25C1338.77 55.375 1338.77 55.4688 1338.67 55.5312C1338.58 55.5938 1338.48 55.5625 1338.39 55.4375C1338.33 55.2812 1338.33 55.1875 1338.39 55.1562Z" fill="#B2B2B2"/>
<path d="M1407.88 51.1094C1409.38 50.3906 1410.12 49.25 1410.12 47.6875C1410.12 46.125 1409.61 45.0156 1408.58 44.3594C1407.7 43.7969 1406.45 43.5156 1404.83 43.5156H1397V60.1562H1405.06C1406.72 60.1562 1408.06 59.7656 1409.09 58.9844C1410.31 58.1406 1410.92 56.9219 1410.92 55.3281C1410.92 54.2656 1410.66 53.375 1410.12 52.6562C1409.62 51.9062 1408.88 51.3906 1407.88 51.1094ZM1400.66 46.375H1404.08C1405.73 46.375 1406.56 47 1406.56 48.25C1406.56 48.9375 1406.36 49.4531 1405.95 49.7969C1405.58 50.1094 1405.05 50.2656 1404.36 50.2656H1400.66V46.375ZM1404.55 57.3438H1400.66V52.75H1404.64C1406.39 52.75 1407.27 53.5469 1407.27 55.1406C1407.27 56.6094 1406.36 57.3438 1404.55 57.3438ZM1421.38 46.0469H1414.62V44.4062H1421.38V46.0469ZM1424 54.2969C1424 52.4531 1423.5 50.9219 1422.5 49.7031C1421.41 48.4219 1419.95 47.7812 1418.14 47.7812C1416.95 47.7812 1415.89 48.0625 1414.95 48.625C1414.02 49.1875 1413.28 49.9531 1412.75 50.9219C1412.25 51.8906 1412 52.9688 1412 54.1562C1412 56.0312 1412.55 57.5469 1413.64 58.7031C1414.77 59.8594 1416.27 60.4375 1418.14 60.4375C1421.02 60.4375 1422.89 59.0938 1423.77 56.4062H1420.86C1420.7 56.9062 1420.36 57.2969 1419.83 57.5781C1419.33 57.8594 1418.8 58 1418.23 58C1417.3 58 1416.56 57.7344 1416.03 57.2031C1415.53 56.6719 1415.28 55.9062 1415.28 54.9062H1423.95L1424 54.2969ZM1415.28 52.8438C1415.34 52.0625 1415.62 51.4375 1416.12 50.9688C1416.62 50.5 1417.27 50.2656 1418.05 50.2656C1418.86 50.2656 1419.48 50.5 1419.92 50.9688C1420.36 51.4062 1420.61 52.0312 1420.67 52.8438H1415.28Z" fill="#B2B2B2"/>
<path d="M1468.69 60.5H1464.33V46.4844H1468.69V60.5ZM1466.53 44.5625C1465.84 44.5625 1465.25 44.3125 1464.75 43.8125C1464.25 43.3125 1464 42.7188 1464 42.0312C1464 41.3438 1464.25 40.75 1464.75 40.25C1465.25 39.75 1465.84 39.5 1466.53 39.5C1467.22 39.5 1467.81 39.75 1468.31 40.25C1468.81 40.75 1469.06 41.3438 1469.06 42.0312C1469.06 42.7188 1468.81 43.3125 1468.31 43.8125C1467.81 44.3125 1467.22 44.5625 1466.53 44.5625ZM1485 60.5H1480.64V53.6562C1480.64 52.5312 1480.55 51.7188 1480.36 51.2188C1480.02 50.375 1479.34 49.9531 1478.34 49.9531C1477.34 49.9531 1476.64 50.3281 1476.23 51.0781C1475.92 51.6406 1475.77 52.4688 1475.77 53.5625V60.5H1471.45V46.4844H1475.62V48.4062H1475.67C1475.98 47.7812 1476.48 47.2656 1477.17 46.8594C1477.92 46.3594 1478.8 46.1094 1479.8 46.1094C1481.83 46.1094 1483.25 46.75 1484.06 48.0312C1484.69 49.0625 1485 50.6562 1485 52.8125V60.5Z" fill="#B2B2B2"/>
<path d="M1548.53 45.5L1537.56 38.1875C1537.19 37.9375 1536.81 37.9375 1536.44 38.1875L1525.47 45.5C1525.16 45.6875 1525 45.9688 1525 46.3438V53.6562C1525 54.0312 1525.16 54.3125 1525.47 54.5L1536.44 61.8125C1536.81 62.0625 1537.19 62.0625 1537.56 61.8125L1548.53 54.5C1548.84 54.3125 1549 54.0312 1549 53.6562V46.3438C1549 45.9688 1548.84 45.6875 1548.53 45.5ZM1538.03 40.9531L1546.09 46.3438L1542.48 48.7344L1538.03 45.7812V40.9531ZM1535.97 40.9531V45.7812L1531.52 48.7344L1527.91 46.3438L1535.97 40.9531ZM1527.06 48.2656L1529.64 50L1527.06 51.7344V48.2656ZM1535.97 59.0469L1527.91 53.6562L1531.52 51.2656L1535.97 54.2188V59.0469ZM1537 52.4375L1533.34 50L1537 47.5625L1540.66 50L1537 52.4375ZM1538.03 59.0469V54.2188L1542.48 51.2656L1546.09 53.6562L1538.03 59.0469ZM1546.94 51.7344L1544.36 50L1546.94 48.2656V51.7344Z" fill="#B2B2B2"/>
<path fill-rule="evenodd" clip-rule="evenodd" d="M416 20V32C406.059 32 398 40.0589 398 50C398 59.9411 406.059 68 416 68C425.941 68 434 59.9411 434 50H446C446 66.5685 432.569 80 416 80C399.431 80 386 66.5685 386 50C386 33.4315 399.431 20 416 20Z" fill="#5528FF"/>
<path fill-rule="evenodd" clip-rule="evenodd" d="M416 26H440V50H428V38H416V26Z" fill="#5528FF"/>
</svg>
